<?xml version="1.0" standalone="no"?>
<!DOCTYPE svg PUBLIC "-//W3C//DTD SVG 20010904//EN"
 "http://www.w3.org/TR/2001/REC-SVG-20010904/DTD/svg10.dtd">
<svg version="1.0" xmlns="http://www.w3.org/2000/svg"
 width="224.000000pt" height="224.000000pt" viewBox="0 0 224.000000 224.000000"
 preserveAspectRatio="xMidYMid meet">

<g transform="translate(0.000000,224.000000) scale(0.100000,-0.100000)"
fill="#000000" stroke="none">
<path d="M249 1409 c-94 -14 -171 -69 -214 -156 -40 -78 -42 -183 -6 -257 52
-106 151 -168 270 -167 112 0 202 54 256 152 27 48 30 63 30 139 0 76 -3 91
-30 139 -62 112 -177 169 -306 150z"/>
<path d="M1088 1409 c-96 -15 -171 -69 -220 -162 -19 -34 -23 -58 -23 -127 0
-75 4 -91 30 -138 54 -99 145 -153 257 -153 211 -1 350 200 277 397 -48 128
-181 204 -321 183z"/>
<path d="M1900 1410 c-89 -12 -169 -67 -215 -151 -27 -48 -30 -63 -30 -139 0
-76 3 -91 30 -139 96 -173 331 -207 468 -66 196 202 28 530 -253 495z"/>
</g>
</svg>
